<?xml version="1.0" encoding="utf-8"?>
<!-- Generator: Adobe Illustrator 15.0.0, SVG Export Plug-In . SVG Version: 6.00 Build 0)  -->
<!DOCTYPE svg PUBLIC "-//W3C//DTD SVG 1.1//EN" "http://www.w3.org/Graphics/SVG/1.1/DTD/svg11.dtd">
<svg version="1.1" id="Calque_1" xmlns="http://www.w3.org/2000/svg" xmlns:xlink="http://www.w3.org/1999/xlink" x="0px" y="0px"
	 width="408px" height="378.5px" viewBox="0 0 408 378.5" enable-background="new 0 0 408 378.5" xml:space="preserve">
<g>
	<path fill-rule="evenodd" clip-rule="evenodd" fill="#1C9790" d="M192.5,14.25c14.271,5.716,23.07,15.563,22.945,31.578
		c-0.127,16.244-14.322,30.371-29.966,30.459c-4.316,0.024-7.448-1.295-7.932-5.944c-0.48-4.617,1.772-6.479,6.495-7.229
		c16.837-2.675,22.966-16.501,13.417-29.805c-2.865-3.992-7.233-5.831-12.067-5.991c-3.357-0.11-6.232-0.714-7.458-4.157
		c-1.238-3.478-0.541-6.589,2.566-8.91C184.5,14.25,188.5,14.25,192.5,14.25L192.5,14.25z"/>
	<path fill-rule="evenodd" clip-rule="evenodd" fill="#1C9790" d="M228.5,14.25c14.81,4.661,22.299,15.057,24.016,30.208
		c1.397,12.332-10.257,27.823-23.533,30.747c-2.679,0.591-5.488,1.111-8.192,0.942c-3.423-0.213-6.305-1.503-6.341-5.892
		c-0.034-4.171,1.13-6.545,5.859-7.105c11.754-1.396,18.176-7.874,18.191-17.601c0.017-10.896-5.522-16.291-18.347-18.356
		c-5.807-0.936-6.683-4.947-5.137-9.91c0.33-1.063,0.98-2.024,1.484-3.033C220.5,14.25,224.5,14.25,228.5,14.25L228.5,14.25z"/>
	<path fill-rule="evenodd" clip-rule="evenodd" fill="#FFFFFF" d="M18.5,346.25c3.554,8.935,10.109,14.7,19,18c-0.333,0-0.667,0-1,0
		"/>
	<path fill-rule="evenodd" clip-rule="evenodd" fill="#1C9790" d="M373.497,337.671c-0.001,8.103-5.131,13.545-13.236,13.549
		c-105.151,0.046-210.301,0.045-315.45,0.002c-8.16-0.003-13.306-5.39-13.307-13.479c-0.006-71.322,0.028-142.645-0.094-213.967
		c-0.006-3.699,0.812-4.631,4.582-4.621c55.491,0.139,110.982,0.096,166.473,0.096c55.491,0,110.982,0.037,166.473-0.086
		c3.627-0.008,4.67,0.697,4.662,4.541C373.464,195.027,373.502,266.35,373.497,337.671L373.497,337.671z M370.16,38.059
		c-3.635-1.382-7.465-1.516-11.311-1.515c-20.953,0.004-41.908,0-62.863,0.014c-3.484,0.002-6.263-0.372-7.998-4.291
		c-4.324-9.773-11.187-16.769-22.489-18.017c-4,0-8,0-12,0c-3.521,1.664-3.967,4.661-3.357,8.014
		c0.591,3.259,2.626,5.303,5.775,6.238c1.442,0.429,2.961,0.487,4.42,0.813c7.457,1.664,12.754,7.741,13.185,15.05
		c0.415,7.023-4.09,13.25-11.448,15.77c-2.052,0.702-4.219,0.983-6.299,1.574c-4.38,1.245-6.24,4.058-5.807,8.579
		c0.479,5.019,4.027,7.986,9.885,7.541c13.081-0.994,22.619-7.399,27.921-19.524c1.491-3.407,3.277-5.345,7.337-5.322
		c21.16,0.118,42.324-0.136,63.481,0.153c8.985,0.123,12.97,4.412,13.097,13.437c0.135,9.662,0.037,19.327,0.037,28.991
		c0,8.904-0.009,8.914-9.112,8.914c-106.637,0.002-213.274,0.001-319.912,0c-1.5,0-3.006-0.098-4.497-0.016
		c-3.708,0.204-4.966-1.626-4.944-5.147c0.071-11.329-0.158-22.662,0.105-33.988c0.176-7.581,4.188-11.54,11.772-12.174
		c2.161-0.18,4.33-0.129,6.495-0.129c27.992-0.004,55.984,0,83.976-0.005c2.166,0,4.334,0.056,6.493-0.165
		c4.001-0.41,6.447-2.453,6.883-6.589c0.454-4.307-1.596-7.771-5.397-9.105c-1.272-0.447-2.616-0.461-3.932-0.653
		c-1.369-0.2-3.443,0.504-3.824-1.286c-0.334-1.564,1.497-2.413,2.713-3.234c5.542-3.745,11.292-3.736,16.98-0.504
		c5.224,2.969,7.954,7.838,7.736,13.663c-0.247,6.621-3.746,11.615-9.919,14.469c-2.599,1.201-5.484,1.397-8.173,2.266
		c-4.073,1.314-6.356,4.752-5.935,8.726c0.4,3.787,3.085,6.421,7.267,7.093c1.658,0.266,3.32,0.175,4.981-0.03
		c15.856-1.958,27.906-14.743,28.703-30.461c0.847-16.74-8.464-29.172-24.687-32.956c-5.333,0-10.667,0-16,0
		c-10.066,0.954-17.067,6.762-21.093,15.368c-2.679,5.726-6.112,7.109-11.89,7.037c-20.785-0.26-41.575-0.235-62.362-0.051
		C30.559,36.725,21.422,43.893,18.5,56.25c0,96.667,0,193.333,0,290c0.694,5.349,3.479,9.374,7.371,13.044
		c3.387,3.193,7.479,3.964,11.629,4.956c110,0,220,0,330,0c10.348-1.763,17.021-7.403,19-18c0-96.667,0-193.333,0-290
		C385.145,46.513,378.711,41.311,370.16,38.059L370.16,38.059z"/>
	<path fill-rule="evenodd" clip-rule="evenodd" fill="#D85A4A" d="M157.025,140.134c21.228-0.001,33.868,8.231,43.867,21.157
		c1.613,2.085,1.456,2.316,3.172,0.043c10.887-14.417,25.091-22.393,43.612-21.061c15.429,1.11,27.469,8.617,38.148,19.496
		c11.565,11.78,16.182,26.188,16.469,41.864c0.319,17.375-6.574,32.501-18.699,44.956c-20.531,21.088-41.318,41.928-61.861,63.004
		c-6.076,6.234-11.731,12.883-17.499,19.413c-1.379,1.563-2.247,1.374-3.539-0.087c-5.774-6.523-11.43-13.171-17.505-19.407
		c-20.072-20.604-40.31-41.048-60.481-61.557c-13.345-13.567-20.715-29.531-20.249-48.902
		C103.209,167.975,132.063,139.445,157.025,140.134L157.025,140.134z"/>
</g>
</svg>
