<?xml version="1.0" encoding="utf-8"?>
<!-- Generator: Adobe Illustrator 15.0.0, SVG Export Plug-In . SVG Version: 6.00 Build 0)  -->
<!DOCTYPE svg PUBLIC "-//W3C//DTD SVG 1.1//EN" "http://www.w3.org/Graphics/SVG/1.1/DTD/svg11.dtd">
<svg version="1.1" id="Logo" xmlns="http://www.w3.org/2000/svg" xmlns:xlink="http://www.w3.org/1999/xlink" x="0px" y="0px"
	 width="32px" height="32px" viewBox="0 0 32 32" enable-background="new 0 0 32 32" xml:space="preserve">
<g>
	<g>
		<path fill-rule="evenodd" clip-rule="evenodd" fill="#041716" d="M11.589,15.247c0-0.22-0.18-0.4-0.4-0.4H9.684
			c-0.22,0-0.4,0.18-0.4,0.4v10.491c0,0.221,0.18,0.4,0.4,0.4h1.506c0.22,0,0.4-0.18,0.4-0.4V15.247z"/>
	</g>
	<g>
		<path fill-rule="evenodd" clip-rule="evenodd" fill="#041716" d="M17.813,18.217c0-0.221-0.18-0.4-0.4-0.4h-1.505
			c-0.22,0-0.4,0.18-0.4,0.4v7.521c0,0.221,0.18,0.4,0.4,0.4h1.505c0.221,0,0.4-0.18,0.4-0.4V18.217z"/>
	</g>
	<g>
		<path fill-rule="evenodd" clip-rule="evenodd" fill="#041716" d="M24.074,15.247c0-0.22-0.18-0.4-0.4-0.4h-1.505
			c-0.221,0-0.4,0.18-0.4,0.4v10.491c0,0.221,0.18,0.4,0.4,0.4h1.505c0.221,0,0.4-0.18,0.4-0.4V15.247z"/>
	</g>
	<g>
		<path fill-rule="evenodd" clip-rule="evenodd" fill="#C17D52" d="M11.589,12.238c0-0.22-0.18-0.4-0.4-0.4H9.684
			c-0.22,0-0.4,0.18-0.4,0.4v1.545c0,0.22,0.18,0.4,0.4,0.4h1.506c0.22,0,0.4-0.18,0.4-0.4V12.238z"/>
	</g>
	<g>
		<path fill-rule="evenodd" clip-rule="evenodd" fill="#C17D52" d="M11.589,9.269c0-0.22-0.18-0.4-0.4-0.4H9.684
			c-0.22,0-0.4,0.18-0.4,0.4v1.505c0,0.22,0.18,0.4,0.4,0.4h1.506c0.22,0,0.4-0.18,0.4-0.4V9.269z"/>
	</g>
	<g>
		<path fill-rule="evenodd" clip-rule="evenodd" fill="#C17D52" d="M17.813,15.247c0-0.22-0.18-0.4-0.4-0.4h-1.505
			c-0.22,0-0.4,0.18-0.4,0.4v1.544c0,0.22,0.18,0.4,0.4,0.4h1.505c0.221,0,0.4-0.18,0.4-0.4V15.247z"/>
	</g>
	<g>
		<path fill-rule="evenodd" clip-rule="evenodd" fill="#C17D52" d="M17.813,12.238c0-0.22-0.18-0.4-0.4-0.4h-1.505
			c-0.22,0-0.4,0.18-0.4,0.4v1.545c0,0.22,0.18,0.4,0.4,0.4h1.505c0.221,0,0.4-0.18,0.4-0.4V12.238z"/>
	</g>
	<g>
		<path fill-rule="evenodd" clip-rule="evenodd" fill="#C17D52" d="M24.074,12.238c0-0.22-0.18-0.4-0.4-0.4h-1.505
			c-0.221,0-0.4,0.18-0.4,0.4v1.545c0,0.22,0.18,0.4,0.4,0.4h1.505c0.221,0,0.4-0.18,0.4-0.4V12.238z"/>
	</g>
	<g>
		<path fill-rule="evenodd" clip-rule="evenodd" fill="#C17D52" d="M24.074,9.269c0-0.22-0.18-0.4-0.4-0.4h-1.505
			c-0.221,0-0.4,0.18-0.4,0.4v1.505c0,0.22,0.18,0.4,0.4,0.4h1.505c0.221,0,0.4-0.18,0.4-0.4V9.269z"/>
	</g>
	<g>
		<path fill-rule="evenodd" clip-rule="evenodd" fill="#1B9790" d="M11.589,6.26c0-0.22-0.18-0.4-0.4-0.4H9.684
			c-0.22,0-0.4,0.18-0.4,0.4v1.545c0,0.22,0.18,0.4,0.4,0.4h1.506c0.22,0,0.4-0.18,0.4-0.4V6.26z"/>
	</g>
	<g>
		<path fill-rule="evenodd" clip-rule="evenodd" fill="#1B9790" d="M17.813,9.249c0-0.22-0.18-0.4-0.4-0.4h-1.505
			c-0.22,0-0.4,0.18-0.4,0.4v1.544c0,0.22,0.18,0.4,0.4,0.4h1.505c0.221,0,0.4-0.18,0.4-0.4V9.249z"/>
	</g>
	<g>
		<path fill-rule="evenodd" clip-rule="evenodd" fill="#1B9790" d="M24.074,6.26c0-0.22-0.18-0.4-0.4-0.4h-1.505
			c-0.221,0-0.4,0.18-0.4,0.4v1.545c0,0.22,0.18,0.4,0.4,0.4h1.505c0.221,0,0.4-0.18,0.4-0.4V6.26z"/>
	</g>
	<path fill="#1B9790" d="M16.743,31.359c-8.469,0-15.36-6.891-15.36-15.359c0-8.469,6.891-15.359,15.36-15.359
		c5.866,0,11.301,3.417,13.848,8.706C30.653,9.475,30.6,9.63,30.47,9.691C30.345,9.754,30.188,9.7,30.125,9.57
		c-2.461-5.111-7.714-8.413-13.382-8.413C8.559,1.158,1.901,7.816,1.901,16c0,8.185,6.658,14.842,14.842,14.842
		c3.135,0,6.134-0.966,8.671-2.795c0.114-0.085,0.277-0.058,0.361,0.06c0.084,0.115,0.058,0.277-0.059,0.359
		C23.09,30.359,19.987,31.359,16.743,31.359z"/>
</g>
</svg>
