<?xml version="1.0" encoding="utf-8"?>
<!-- Generator: Adobe Illustrator 16.0.3, SVG Export Plug-In . SVG Version: 6.00 Build 0)  -->
<!DOCTYPE svg PUBLIC "-//W3C//DTD SVG 1.1//EN" "http://www.w3.org/Graphics/SVG/1.1/DTD/svg11.dtd">
<svg version="1.1" id="Calque_1" xmlns="http://www.w3.org/2000/svg" xmlns:xlink="http://www.w3.org/1999/xlink" x="0px" y="0px"
	 width="30.96px" height="24px" viewBox="0 0 30.96 24" enable-background="new 0 0 30.96 24" xml:space="preserve">
<g>
	<g>
		<defs>
			<rect id="SVGID_1_" x="0" width="30.96" height="24"/>
		</defs>
		<clipPath id="SVGID_2_">
			<use xlink:href="#SVGID_1_"  overflow="visible"/>
		</clipPath>
		<path clip-path="url(#SVGID_2_)" fill="#1C9790" d="M20.317,19.129c-5.949,0-11.109-1-14.343-2.836
			c-1.114,0.539-4.618,2.289-5.547,3.394C0.238,19.914,0.017,20.5,0,20.793c-0.012,0.229,0.25,0.883,0.25,0.883
			c7.871,3.324,12.27,2.058,16.672,1.191c4.68-0.923,8.922-3.914,8.922-3.914c0.035-0.039,0.078-0.078,0.117-0.117
			C24.028,19.026,22.137,19.129,20.317,19.129L20.317,19.129z M20.317,19.129"/>
		<path clip-path="url(#SVGID_2_)" fill="#1C9790" d="M20.446,1.328h-0.066C20.321,0.59,19.426,0,18.321,0
			c-1.141,0-2.066,0.625-2.066,1.398c0,0.016,0.008,0.028,0.008,0.039C5.806,2.523,6.23,9.844,6.445,13.793
			c0.035,0.69-0.011,1.375-0.058,1.819c4.265,2.427,12.14,3.32,20.73,2.293c1.594-1.098,3.766-2.147,3.766-2.147
			s0.133-4.063,0-5.407C30.176,3.293,24.137,1.668,20.446,1.328L20.446,1.328z M20.446,1.328"/>
	</g>
</g>
</svg>
