<?xml version="1.0" encoding="utf-8"?>
<!-- Generator: Adobe Illustrator 16.0.3, SVG Export Plug-In . SVG Version: 6.00 Build 0)  -->
<!DOCTYPE svg PUBLIC "-//W3C//DTD SVG 1.1//EN" "http://www.w3.org/Graphics/SVG/1.1/DTD/svg11.dtd">
<svg version="1.1" id="Calque_1" xmlns="http://www.w3.org/2000/svg" xmlns:xlink="http://www.w3.org/1999/xlink" x="0px" y="0px"
	 width="156.96px" height="183px" viewBox="0 0 156.96 183" enable-background="new 0 0 156.96 183" xml:space="preserve">
<g>
	<g>
		<defs>
			<rect id="SVGID_1_" width="156.96" height="183"/>
		</defs>
		<clipPath id="SVGID_2_">
			<use xlink:href="#SVGID_1_"  overflow="visible"/>
		</clipPath>
		<path clip-path="url(#SVGID_2_)" fill="#1C9790" d="M148,164.891h-6.41c0-0.059-0.258-0.109-0.258-0.168v-40.367l5.43-0.012
			c2.426-0.078,3.316-1.516,3.559-2.133c0.241-0.621,0.52-2.254-1.246-4.008l-8.543-8.355V88.09c0-3.094-2.238-5.602-5.332-5.602
			h-8.801c-3.094,0-5.867,2.508-5.867,5.602v1.953l-15.098-15.086c-0.145-0.141-0.23-0.27-0.387-0.391
			c1.094-2.277,1.859-4.754,2.23-7.492c0.867-6.449-0.496-12.793-3.68-17.867c1.492,1.223,2.828,2.633,3.964,4.223
			c0.778,1.105,2,1.738,3.353,1.738c2.16,0,3.945-1.598,4.141-3.703c0.371-3.727-0.164-7.336-1.633-11.02
			c-3.77-9.5-11.965-15.89-21.391-16.676c-2.301-0.195-4.617-0.074-6.852,0.352c-0.086-2.281-0.484-4.539-1.195-6.742
			C81.07,8.371,72.992,1.824,62.902,0.297c-3.976-0.61-7.804-0.274-11.351,0.984c-1.598,0.555-2.66,2.02-2.703,3.734
			c-0.039,1.7,0.941,3.207,2.504,3.836c1.878,0.754,3.613,1.746,5.187,2.954c-2.613-0.903-5.426-1.364-8.355-1.364
			c-3.356,0-6.668,0.614-9.848,1.817c-4.633,1.754-8.215,4.425-10.938,8.164c-0.836,1.125-0.964,2.601-0.336,3.847
			c0.629,1.246,1.883,2.02,3.27,2.02c0.266,0,0.535-0.027,0.773-0.082c1.528-0.313,3.071-0.473,4.594-0.473
			c5.203,0,10.192,1.805,14.84,5.36c-5.73-0.426-11.469,2.375-15.074,7.273c-1.41,1.891-2.36,3.965-2.82,6.148
			c-0.235,1.102,0.039,2.231,0.746,3.102c0.707,0.875,1.793,1.398,2.906,1.398c0.808,0,1.582-0.265,2.238-0.773
			c2.996-2.328,6.774-3.23,11.024-2.633c2.726,0.387,5.078,1.293,7.015,2.707c-3.523,4.293-11.496,15.012-19.426,30.75
			c-9.347,18.555-20.668,48.383-22.089,85.821H8.801c-4.852,0-8.801,3.949-8.801,8.801s3.949,8.801,8.801,8.801H148
			c4.852,0,8.801-3.949,8.801-8.801S152.852,164.891,148,164.891L148,164.891z M44.418,164.891
			C43.062,98.219,62.68,65.91,68.492,57.844c1.613,1.519,2.883,3.476,3.789,5.832c1.551,4.019,1.528,7.945-0.082,11.367
			c-0.527,1.14-0.437,2.453,0.239,3.512c0.683,1.07,1.886,1.734,3.14,1.734c0.543,0,1.07-0.117,1.551-0.344
			c2.02-0.933,3.836-2.336,5.391-4.168c4.023-4.719,5.387-10.871,3.691-16.312c5.75,4.746,8.902,10.777,9.121,17.504
			c0.012,0.265,0.055,0.527,0.113,0.781l-40.797,40.457c-1.71,1.695-1.328,3.324-1.082,3.945c0.246,0.633,0.961,2.109,3.532,2.191
			l5.035,0.012v40.367c0,0.059,0.273,0.109,0.277,0.168H44.418z M113.383,164.891H90.445l0.047-17.602h22.844L113.383,164.891z
			 M113.383,164.891"/>
	</g>
</g>
</svg>
