<?xml version="1.0" encoding="utf-8"?>
<!-- Generator: Adobe Illustrator 16.0.3, SVG Export Plug-In . SVG Version: 6.00 Build 0)  -->
<!DOCTYPE svg PUBLIC "-//W3C//DTD SVG 1.1//EN" "http://www.w3.org/Graphics/SVG/1.1/DTD/svg11.dtd">
<svg version="1.1" id="Calque_1" xmlns="http://www.w3.org/2000/svg" xmlns:xlink="http://www.w3.org/1999/xlink" x="0px" y="0px"
	 width="25.602px" height="22.398px" viewBox="0 0 25.602 22.398" enable-background="new 0 0 25.602 22.398" xml:space="preserve">
<g>
	<path fill-rule="evenodd" clip-rule="evenodd" fill="#1C9790" d="M24,9.602l-4.801,3.199c0-0.973-0.441-1.832-1.125-2.418
		c1.629-0.981,2.727-2.746,2.727-4.781C20.801,2.508,18.293,0,15.199,0c-3.094,0-5.597,2.508-5.597,5.602
		c0,1.566,0.648,2.98,1.687,4H8.355C9.121,8.75,9.602,7.637,9.602,6.398c0-2.648-2.149-4.796-4.801-4.796
		C2.148,1.602,0,3.75,0,6.398c0,1.45,0.652,2.731,1.664,3.61C0.676,10.555,0,11.594,0,12.801v6.398c0,1.77,1.434,3.199,3.199,3.199
		H16c1.766,0,3.199-1.43,3.199-3.199L24,22.398c0.883,0,1.602-0.715,1.602-1.598v-9.602C25.602,10.316,24.883,9.602,24,9.602
		L24,9.602z M4.801,9.602c-1.77,0-3.199-1.434-3.199-3.204c0-1.765,1.429-3.199,3.199-3.199C6.566,3.199,8,4.633,8,6.398
		C8,8.168,6.566,9.602,4.801,9.602L4.801,9.602z M15.199,9.609c-2.215,0-4.008-1.796-4.008-4.007c0-2.215,1.797-4.012,4.008-4.012
		c2.215,0,4.008,1.797,4.008,4.012C19.207,7.813,17.414,9.609,15.199,9.609L15.199,9.609z M15.199,9.609"/>
</g>
</svg>
