<?xml version="1.0" encoding="utf-8"?>
<!-- Generator: Adobe Illustrator 16.0.3, SVG Export Plug-In . SVG Version: 6.00 Build 0)  -->
<!DOCTYPE svg PUBLIC "-//W3C//DTD SVG 1.1//EN" "http://www.w3.org/Graphics/SVG/1.1/DTD/svg11.dtd">
<svg version="1.1" id="Calque_1" xmlns="http://www.w3.org/2000/svg" xmlns:xlink="http://www.w3.org/1999/xlink" x="0px" y="0px"
	 width="512px" height="344px" viewBox="0 0 512 344" enable-background="new 0 0 512 344" xml:space="preserve">
<g>
	<path fill-rule="evenodd" clip-rule="evenodd" fill="#1C9790" d="M0,344C0,229.333,0,114.667,0,0c170.666,0,341.333,0,512,0
		c0,114.667,0,229.333,0,344C341.333,344,170.666,344,0,344z M21.207,322.016c19.07,0,37.562,0.1,56.049-0.174
		c1.607-0.024,3.804-2.185,4.67-3.889c10.165-20.006,20.152-40.102,30.125-60.205c2.299-4.635,5.938-6.741,11.036-6.74
		c88.65,0.015,177.299,0.011,265.95,0.01c5.079,0,8.646,2.155,10.957,6.842c9.926,20.125,20.054,40.151,29.944,60.294
		c1.445,2.942,3.132,3.996,6.429,3.948c13.661-0.198,27.327-0.083,40.991-0.083c4.439,0,8.879,0,13.316,0
		c0-100.328,0-200.035,0-299.669c-156.712,0-313.078,0-469.467,0C21.207,122.307,21.207,221.896,21.207,322.016z M407.454,321.839
		c-8.014-15.985-15.556-31.232-23.397-46.324c-0.706-1.359-3.349-2.428-5.095-2.431c-81.979-0.117-163.959-0.084-245.938-0.172
		c-3.118-0.003-4.722,1.029-6.045,3.783c-5.321,11.07-10.863,22.035-16.323,33.038c-1.934,3.897-3.869,7.794-6.01,12.105
		C205.795,321.839,306.21,321.839,407.454,321.839z"/>
	<path fill-rule="evenodd" clip-rule="evenodd" fill="none" d="M21.207,322.016c0-100.12,0-199.709,0-299.666
		c156.389,0,312.755,0,469.467,0c0,99.634,0,199.341,0,299.669c-4.438,0-8.877,0-13.316,0c-13.664,0-27.33-0.115-40.991,0.083
		c-3.297,0.048-4.983-1.006-6.429-3.948c-9.891-20.143-20.019-40.169-29.944-60.294c-2.312-4.687-5.878-6.842-10.957-6.842
		c-88.65,0.001-177.3,0.005-265.95-0.01c-5.098-0.001-8.736,2.105-11.036,6.74c-9.973,20.104-19.96,40.199-30.125,60.205
		c-0.866,1.704-3.063,3.864-4.67,3.889C58.769,322.115,40.277,322.016,21.207,322.016z M255.794,52.019
		c-55.657,0-111.314,0-166.972,0c-11.332,0-22.663-0.023-33.994,0.011c-5.251,0.016-9.141,2.657-9.714,7.73
		c-0.813,7.198-1.038,14.491-1.052,21.744c-0.088,43.659-0.052,87.318-0.037,130.978c0.003,9.255,4.104,13.497,12.965,13.497
		c132.811,0.004,265.621,0.005,398.432-0.002c7.913,0,12.491-4.078,12.507-11.907c0.101-49.991,0.101-99.983,0.003-149.975
		c-0.016-8.268-5.36-12.252-12.672-12.225C388.771,52.123,322.282,52.019,255.794,52.019z"/>
	<path fill-rule="evenodd" clip-rule="evenodd" fill="none" d="M407.454,321.839c-101.244,0-201.659,0-302.809,0
		c2.141-4.312,4.076-8.208,6.01-12.105c5.46-11.003,11.002-21.968,16.323-33.038c1.324-2.754,2.927-3.786,6.045-3.783
		c81.979,0.088,163.96,0.055,245.938,0.172c1.746,0.003,4.389,1.071,5.095,2.431C391.898,290.606,399.44,305.854,407.454,321.839z
		 M192.101,287.019c-17.157,0-34.313-0.035-51.471,0.019c-6.522,0.021-11.018,4.951-10.609,11.395
		c0.412,6.494,5.303,10.528,13.02,10.537c28.316,0.032,56.634,0.013,84.951,0.013c4.497,0,9.003,0.177,13.489-0.046
		c6.92-0.345,13.21-5.969,12.259-11.358c-1.293-7.323-4.577-10.889-12.671-10.683C224.756,287.311,208.425,287.019,192.101,287.019z
		 M278.434,308.981c7.308,0.01,11.83-2.856,13.308-8.435c1.276-4.817-0.659-10.494-5.402-12.384
		c-3.324-1.323-7.369-0.896-11.1-1.125c-3.941-0.241-6.394,1.994-8.275,5.178C262.039,300.55,269.144,309.771,278.434,308.981z"/>
	<path fill-rule="evenodd" clip-rule="evenodd" fill="#1C9790" d="M255.794,52.019c66.488,0,132.978,0.104,199.466-0.148
		c7.312-0.027,12.656,3.957,12.672,12.225c0.098,49.991,0.098,99.983-0.003,149.975c-0.016,7.829-4.594,11.907-12.507,11.907
		c-132.811,0.007-265.621,0.006-398.432,0.002c-8.861,0-12.961-4.242-12.965-13.497c-0.016-43.659-0.051-87.318,0.037-130.978
		c0.015-7.253,0.239-14.546,1.052-21.744c0.573-5.073,4.462-7.715,9.714-7.73c11.331-0.034,22.663-0.011,33.994-0.011
		C144.479,52.019,200.137,52.019,255.794,52.019z M445.711,203.921c0-43.802,0-87.185,0-130.594c-126.684,0-253.061,0-379.334,0
		c0,43.731,0,87.115,0,130.594C192.913,203.921,319.054,203.921,445.711,203.921z"/>
	<path fill-rule="evenodd" clip-rule="evenodd" fill="#1C9790" d="M192.101,287.019c16.324,0,32.655,0.292,48.969-0.124
		c8.094-0.206,11.378,3.359,12.671,10.683c0.951,5.39-5.339,11.014-12.259,11.358c-4.486,0.223-8.992,0.046-13.489,0.046
		c-28.317,0-56.635,0.02-84.951-0.013c-7.717-0.009-12.608-4.043-13.02-10.537c-0.409-6.443,4.086-11.374,10.609-11.395
		C157.787,286.983,174.943,287.019,192.101,287.019z"/>
	<path fill-rule="evenodd" clip-rule="evenodd" fill="#1C9790" d="M278.434,308.981c-9.29,0.79-16.395-8.432-11.47-16.766
		c1.882-3.184,4.334-5.419,8.275-5.178c3.73,0.229,7.775-0.198,11.1,1.125c4.743,1.89,6.679,7.566,5.402,12.384
		C290.264,306.125,285.741,308.991,278.434,308.981z"/>
	<path fill-rule="evenodd" clip-rule="evenodd" fill="none" d="M445.711,203.921c-126.657,0-252.798,0-379.334,0
		c0-43.479,0-86.862,0-130.594c126.273,0,252.65,0,379.334,0C445.711,116.736,445.711,160.119,445.711,203.921z M256.01,87.019
		c-35.159,0-70.318-0.058-105.477,0.024c-17.197,0.04-31.748,6.166-42.145,20.195c-12.255,16.535-14.316,34.869-5.874,53.386
		c9.475,20.781,27.3,30.223,49.498,30.228c71.919,0.015,143.838-0.454,215.755-0.956c11.201-0.078,20.882-4.907,29.16-12.366
		c12.537-11.298,17.992-25.392,17.132-42.268c-0.689-13.516-6.257-24.829-15.56-33.972c-10.205-10.027-23.093-14.355-37.513-14.309
		C325.995,87.096,291.002,87.019,256.01,87.019z"/>
	<path fill-rule="evenodd" clip-rule="evenodd" fill="#1C9790" d="M256.01,87.019c34.992,0,69.985,0.077,104.978-0.037
		c14.42-0.047,27.308,4.281,37.513,14.309c9.303,9.143,14.87,20.456,15.56,33.972c0.86,16.876-4.595,30.97-17.132,42.268
		c-8.278,7.459-17.959,12.288-29.16,12.366c-71.917,0.502-143.836,0.971-215.755,0.956c-22.198-0.005-40.023-9.446-49.498-30.228
		c-8.442-18.517-6.381-36.851,5.874-53.386c10.397-14.029,24.948-20.155,42.145-20.195C185.691,86.961,220.851,87.019,256.01,87.019
		z M319.573,109.214c-42.497,0-84.672,0-127.196,0c12.012,20.013,11.469,39.816-0.131,59.475c42.765,0,84.938,0,127.593,0
		C307.96,148.715,307.822,129.052,319.573,109.214z M179.019,139.082c0.372-15.635-12.321-29.832-29.76-30.051
		c-14.022-0.176-29.313,12.364-29.409,28.91c-0.116,19.821,14.973,30.688,29.564,30.731
		C165.005,168.719,178.85,156.597,179.019,139.082z M392.019,139.063c1.116-17.855-15.684-30.071-29.156-30.075
		c-16.318-0.005-29.799,13.382-29.899,29.474c-0.11,17.876,13.867,30.192,29.502,30.209
		C377.08,168.686,392.085,158.028,392.019,139.063z"/>
	<path fill-rule="evenodd" clip-rule="evenodd" fill="none" d="M319.573,109.214c-11.751,19.838-11.613,39.501,0.266,59.475
		c-42.655,0-84.828,0-127.593,0c11.6-19.658,12.143-39.462,0.131-59.475C234.901,109.214,277.076,109.214,319.573,109.214z"/>
	<path fill-rule="evenodd" clip-rule="evenodd" fill="none" d="M179.019,139.082c-0.169,17.515-14.014,29.637-29.604,29.591
		c-14.592-0.044-29.681-10.91-29.564-30.731c0.097-16.546,15.387-29.086,29.409-28.91
		C166.697,109.25,179.391,123.447,179.019,139.082z"/>
	<path fill-rule="evenodd" clip-rule="evenodd" fill="none" d="M392.019,139.063c0.066,18.966-14.938,29.623-29.554,29.607
		c-15.635-0.017-29.612-12.333-29.502-30.209c0.101-16.092,13.581-29.479,29.899-29.474
		C376.335,108.991,393.135,121.207,392.019,139.063z"/>
</g>
</svg>
