<?xml version="1.0" encoding="utf-8"?>
<!-- Generator: Adobe Illustrator 16.0.3, SVG Export Plug-In . SVG Version: 6.00 Build 0)  -->
<!DOCTYPE svg PUBLIC "-//W3C//DTD SVG 1.1//EN" "http://www.w3.org/Graphics/SVG/1.1/DTD/svg11.dtd">
<svg version="1.1" id="Calque_1" xmlns="http://www.w3.org/2000/svg" xmlns:xlink="http://www.w3.org/1999/xlink" x="0px" y="0px"
	 width="41.646px" height="42.016px" viewBox="0 0 41.646 42.016" enable-background="new 0 0 41.646 42.016" xml:space="preserve">
<g>
	<path fill="#1C9790" d="M15.133,6.836c-0.145-1.446-0.692-2.774-1.531-3.867c-1.321,0.398-3.735,1.515-6.036,4.617
		c-2.593,3.492-3.597,5.648-3.929,6.468c1.152,0.704,2.5,1.114,3.949,1.114c0,0,0.269-1.864,3.133-5.063
		C13.578,6.902,15.133,6.836,15.133,6.836L15.133,6.836z M15.133,6.836"/>
	<path fill="#1C9790" d="M6.152,6.289C8.5,3.492,10.84,2.137,12.156,1.535C10.887,0.57,9.301,0,7.586,0C3.395,0,0,3.394,0,7.586
		c0,2.039,0.809,3.886,2.121,5.25C2.504,11.777,3.559,9.383,6.152,6.289L6.152,6.289z M6.152,6.289"/>
	<path fill="#1C9790" d="M20.66,14.433l-5.105-6.66c0,0-4.567,1.446-6.746,7.711l7.425,3.953l17.911,14.985
		c0,0,0.906-0.086,1.875-0.816l2.738,2.141c0.695,0.547,1.141,1.32,1.258,2.18c0.117,0.848-0.109,1.684-0.629,2.352
		c-0.52,0.664-1.277,1.082-2.133,1.176c-0.863,0.09-1.719-0.156-2.414-0.699l-1.195-0.934c-0.352-0.277-0.852-0.211-1.125,0.137
		s-0.211,0.848,0.137,1.121l1.199,0.938c0.879,0.688,1.945,1.055,3.039,1.055c0.176,0,0.355-0.008,0.531-0.027
		c1.289-0.141,2.434-0.773,3.219-1.781c0.793-1.008,1.129-2.27,0.957-3.555c-0.172-1.273-0.832-2.418-1.859-3.219l-2.617-2.051
		c0.402-0.598,0.754-1.371,0.973-2.379L20.66,14.433z M14.273,15.808c-0.929,0-1.683-0.754-1.683-1.683
		c0-0.934,0.754-1.688,1.683-1.688c0.934,0,1.688,0.754,1.688,1.688C15.961,15.054,15.207,15.808,14.273,15.808L14.273,15.808z
		 M20.66,20.203c-0.453,0-0.816-0.367-0.816-0.816c0-0.454,0.367-0.821,0.816-0.821c0.453,0,0.816,0.367,0.816,0.821
		C21.477,19.836,21.113,20.203,20.66,20.203L20.66,20.203z M22.637,21.914c-0.449,0-0.816-0.367-0.816-0.817
		c0-0.453,0.367-0.816,0.816-0.816s0.816,0.363,0.816,0.816C23.453,21.547,23.086,21.914,22.637,21.914L22.637,21.914z
		 M22.637,21.914"/>
</g>
</svg>
