<?xml version="1.0" encoding="utf-8"?>
<!-- Generator: Adobe Illustrator 16.0.3, SVG Export Plug-In . SVG Version: 6.00 Build 0)  -->
<!DOCTYPE svg PUBLIC "-//W3C//DTD SVG 1.1//EN" "http://www.w3.org/Graphics/SVG/1.1/DTD/svg11.dtd">
<svg version="1.1" id="Calque_1" xmlns="http://www.w3.org/2000/svg" xmlns:xlink="http://www.w3.org/1999/xlink" x="0px" y="0px"
	 width="86.578px" height="82.132px" viewBox="0 0 86.578 82.132" enable-background="new 0 0 86.578 82.132" xml:space="preserve">
<g>
	<path fill="#1C9790" d="M33.48,80.5c-0.25,0-0.503-0.103-0.687-0.301C27.824,74.8,23.93,59.546,23.93,45.472
		c0-14.824,3.703-29.203,8.8-34.183c0.368-0.36,0.958-0.352,1.317,0.015c0.363,0.367,0.355,0.957-0.012,1.321
		c-4.773,4.664-8.238,18.476-8.238,32.847c0,13.438,3.758,28.449,8.371,33.461c0.352,0.379,0.324,0.969-0.055,1.321
		C33.934,80.418,33.707,80.5,33.48,80.5L33.48,80.5z M33.48,80.5"/>
	<path fill="#1C9790" d="M35.398,80.586c-0.226,0-0.453-0.082-0.632-0.247c-0.379-0.352-0.403-0.941-0.055-1.32
		c4.621-5.019,8.383-20.065,8.383-33.547c0-14.371-3.465-28.187-8.235-32.851c-0.371-0.36-0.375-0.95-0.015-1.321
		c0.359-0.367,0.949-0.371,1.32-0.011c5.098,4.98,8.797,19.355,8.797,34.183c0,14.117-3.899,29.407-8.875,34.813
		C35.902,80.483,35.652,80.586,35.398,80.586L35.398,80.586z M35.398,80.586"/>
	<path fill="#1C9790" d="M45.094,79.019c-0.305,0-0.605-0.151-0.785-0.426c-0.281-0.429-0.16-1.007,0.273-1.289
		c8.082-5.285,13.723-18.152,13.723-31.3c0-13.891-5.629-26.907-13.688-31.649c-0.441-0.262-0.59-0.832-0.328-1.277
		c0.258-0.446,0.832-0.594,1.277-0.332c8.734,5.14,14.605,18.508,14.605,33.258c0,13.742-5.992,27.253-14.57,32.863
		C45.445,78.968,45.266,79.019,45.094,79.019L45.094,79.019z M45.094,79.019"/>
	<path fill="#1C9790" d="M25.172,79.179c-0.176,0-0.352-0.05-0.508-0.152c-8.445-5.516-14.57-19.629-14.57-33.555
		c0-14.972,5.515-27.894,14.054-32.918c0.446-0.261,1.016-0.113,1.278,0.332c0.262,0.446,0.113,1.016-0.332,1.278
		c-7.981,4.695-13.133,16.984-13.133,31.308c0,13.34,5.769,26.797,13.723,31.992c0.429,0.282,0.554,0.864,0.269,1.293
		C25.773,79.03,25.477,79.179,25.172,79.179L25.172,79.179z M25.172,79.179"/>
	<path fill="#1C9790" d="M1.348,43.858c-0.25,0-0.504-0.102-0.688-0.301c-0.348-0.383-0.324-0.972,0.055-1.32
		c5.426-4.996,20.109-8.762,34.152-8.762c14.828,0,29.203,3.699,34.184,8.797c0.359,0.367,0.355,0.957-0.016,1.32
		c-0.367,0.36-0.957,0.352-1.316-0.015c-4.664-4.774-18.48-8.235-32.852-8.235c-13.406,0-27.851,3.629-32.887,8.266
		C1.801,43.772,1.574,43.858,1.348,43.858L1.348,43.858z M1.348,43.858"/>
	<path fill="#1C9790" d="M34.867,55.035c-14.043,0-28.726-3.767-34.152-8.763c-0.379-0.352-0.403-0.94-0.055-1.319
		c0.352-0.379,0.942-0.403,1.32-0.056c5.036,4.638,19.481,8.271,32.887,8.271c14.371,0,28.188-3.461,32.852-8.235
		c0.359-0.367,0.949-0.375,1.32-0.015c0.367,0.358,0.375,0.949,0.016,1.319C64.07,51.336,49.695,55.035,34.867,55.035L34.867,55.035
		z M34.867,55.035"/>
	<path fill="#1C9790" d="M34.867,70.25c-13.738,0-27.719-6.129-33.234-14.575c-0.285-0.429-0.164-1.007,0.269-1.289
		c0.434-0.281,1.008-0.16,1.293,0.27c5.196,7.953,18.516,13.727,31.672,13.727c13.895,0,26.906-5.628,31.648-13.688
		c0.262-0.444,0.832-0.594,1.277-0.332c0.445,0.263,0.594,0.832,0.332,1.277C62.984,64.379,49.621,70.25,34.867,70.25L34.867,70.25z
		 M34.867,70.25"/>
	<path fill="#1C9790" d="M67.32,36.714c-0.32,0-0.632-0.164-0.805-0.46c-4.742-8.059-17.754-13.688-31.648-13.688
		c-13.156,0-26.472,5.773-31.672,13.727c-0.285,0.429-0.859,0.55-1.293,0.269c-0.433-0.281-0.554-0.863-0.269-1.293
		c5.519-8.441,19.496-14.57,33.234-14.57c14.754,0,28.117,5.871,33.258,14.609c0.262,0.446,0.113,1.016-0.332,1.278
		C67.645,36.671,67.48,36.714,67.32,36.714L67.32,36.714z M67.32,36.714"/>
	<path fill="#1C9790" d="M34.867,80.586C15.641,80.586,0,64.944,0,45.718c0-19.226,15.641-34.867,34.867-34.867
		c19.227,0,34.867,15.641,34.867,34.867C69.734,64.944,54.094,80.586,34.867,80.586L34.867,80.586z M34.867,12.718
		c-18.195,0-33,14.805-33,33c0,18.196,14.801,33,33,33c18.194,0,33-14.804,33-33C67.867,27.523,53.062,12.718,34.867,12.718
		L34.867,12.718z M34.867,12.718"/>
	<path fill="#1C9790" d="M35.371,12.132c-0.516,0-0.801-0.414-0.801-0.933V0.933C34.57,0.418,34.855,0,35.371,0
		s0.801,0.418,0.801,0.933v10.266C36.172,11.718,35.887,12.132,35.371,12.132L35.371,12.132z M35.371,12.132"/>
	<path fill="#1C9790" d="M74.922,77.601h-8.684c-0.402,0-0.727-0.401-0.727-0.801c0-0.398,0.324-0.8,0.727-0.8h8.684
		c0.402,0,0.723,0.401,0.723,0.8C75.645,77.199,75.324,77.601,74.922,77.601L74.922,77.601z M74.922,77.601"/>
	<path fill="#1C9790" d="M70.57,82.132c-0.398,0-0.801-0.324-0.801-0.722v-8.685c0-0.401,0.402-0.726,0.801-0.726
		c0.402,0,0.801,0.324,0.801,0.726v8.685C71.371,81.808,70.973,82.132,70.57,82.132L70.57,82.132z M70.57,82.132"/>
	<path fill="#1C9790" d="M85.645,23.199H74.445c-0.516,0-0.934-0.281-0.934-0.797s0.418-0.801,0.934-0.801h11.199
		c0.516,0,0.934,0.285,0.934,0.801S86.164,23.199,85.645,23.199L85.645,23.199z M85.645,23.199"/>
	<path fill="#1C9790" d="M80.172,29.066c-0.516,0-0.801-0.418-0.801-0.934V16.933c0-0.515,0.285-0.933,0.801-0.933
		s0.801,0.418,0.801,0.933v11.199C80.973,28.652,80.688,29.066,80.172,29.066L80.172,29.066z M80.172,29.066"/>
	<path fill="#1C9790" d="M14.445,7.199H3.246c-0.516,0-0.934-0.281-0.934-0.797S2.73,5.601,3.246,5.601h11.199
		c0.516,0,0.934,0.285,0.934,0.801S14.961,7.199,14.445,7.199L14.445,7.199z M14.445,7.199"/>
	<path fill="#1C9790" d="M8.973,13.066c-0.516,0-0.801-0.418-0.801-0.934V0.933C8.172,0.418,8.457,0,8.973,0
		C9.488,0,9.77,0.418,9.77,0.933v11.199C9.77,12.652,9.488,13.066,8.973,13.066L8.973,13.066z M8.973,13.066"/>
</g>
</svg>
