<?xml version="1.0" encoding="utf-8"?>
<!-- Generator: Adobe Illustrator 16.0.3, SVG Export Plug-In . SVG Version: 6.00 Build 0)  -->
<!DOCTYPE svg PUBLIC "-//W3C//DTD SVG 1.1//EN" "http://www.w3.org/Graphics/SVG/1.1/DTD/svg11.dtd">
<svg version="1.1" id="Calque_1" xmlns="http://www.w3.org/2000/svg" xmlns:xlink="http://www.w3.org/1999/xlink" x="0px" y="0px"
	 width="377.486px" height="296.547px" viewBox="0 0 377.486 296.547" enable-background="new 0 0 377.486 296.547"
	 xml:space="preserve">
<g>
	<path fill="#1C9790" d="M378.125,148.27C357.887,63.39,281.668,0.234,190.645,0h-0.047c-0.512,0-1.02,0.015-1.535,0.019
		C188.551,0.015,188.043,0,187.527,0h-0.043C96.461,0.234,20.238,63.39,0,148.27c0,0-0.332,7.589-0.332,16.945
		c0,0,8.305,131.332,29.656,131.332h56.84c9.551,0,17.297-19.77,17.297-19.77L88.633,165.215l-7.922-9.051
		c0.695-2.664-32.293-7.895-32.293-7.895c18.945-58.816,74.023-101.411,139.09-101.622c0.519,0.004,1.035,0.031,1.558,0.039
		c0.52-0.008,1.036-0.035,1.555-0.039c65.07,0.211,120.148,42.805,139.09,101.622c0,0-32.988,5.23-32.293,7.895l-7.922,9.051
		l-14.828,111.563c0,0,7.746,19.77,17.301,19.77h56.836c21.352,0,29.656-131.332,29.656-131.332
		C378.461,155.858,378.125,148.27,378.125,148.27L378.125,148.27z M378.125,148.27"/>
</g>
</svg>
