<?xml version="1.0" encoding="utf-8"?>
<!-- Generator: Adobe Illustrator 16.0.3, SVG Export Plug-In . SVG Version: 6.00 Build 0)  -->
<!DOCTYPE svg PUBLIC "-//W3C//DTD SVG 1.1//EN" "http://www.w3.org/Graphics/SVG/1.1/DTD/svg11.dtd">
<svg version="1.1" id="Calque_1" xmlns="http://www.w3.org/2000/svg" xmlns:xlink="http://www.w3.org/1999/xlink" x="0px" y="0px"
	 width="39.84px" height="44.88px" viewBox="0 0 39.84 44.88" enable-background="new 0 0 39.84 44.88" xml:space="preserve">
<g>
	<g>
		<defs>
			<rect id="SVGID_1_" width="39.84" height="44.88"/>
		</defs>
		<clipPath id="SVGID_2_">
			<use xlink:href="#SVGID_1_"  overflow="visible"/>
		</clipPath>
		<path clip-path="url(#SVGID_2_)" fill="#1B9790" d="M39.727,0.209c-0.172-0.152-0.398-0.218-0.629-0.195L14.297,3.225
			c-0.399,0.051-0.699,0.391-0.699,0.793V33.03c-1.387-1.595-3.555-2.621-5.996-2.621c-4.2,0-7.602,3.026-7.602,6.757
			s3.402,6.754,7.602,6.754c4.195,0,7.597-3.023,7.597-6.754c0-0.265-0.019-0.527-0.054-0.785c0.031-0.086,0.054-0.179,0.054-0.277
			V12.905l23.199-3.004V25.03c-1.391-1.595-3.555-2.622-6-2.622c-4.195,0-7.598,3.027-7.598,6.758s3.402,6.754,7.598,6.754
			c4.199,0,7.602-3.023,7.602-6.754c0-0.074-0.008-0.145-0.012-0.218c0-0.024,0.012-0.039,0.012-0.063V0.811
			C40,0.58,39.902,0.362,39.727,0.209L39.727,0.209z M39.727,0.209"/>
	</g>
</g>
</svg>
