<?xml version="1.0" encoding="utf-8"?>
<!-- Generator: Adobe Illustrator 16.0.3, SVG Export Plug-In . SVG Version: 6.00 Build 0)  -->
<!DOCTYPE svg PUBLIC "-//W3C//DTD SVG 1.1//EN" "http://www.w3.org/Graphics/SVG/1.1/DTD/svg11.dtd">
<svg version="1.1" id="Calque_1" xmlns="http://www.w3.org/2000/svg" xmlns:xlink="http://www.w3.org/1999/xlink" x="0px" y="0px"
	 width="270.602px" height="270.601px" viewBox="0 0 270.602 270.601" enable-background="new 0 0 270.602 270.601"
	 xml:space="preserve">
<g>
	<path fill="#1B9790" d="M135.301,0C60.575,0,0,60.576,0,135.301c0,74.725,60.575,135.299,135.301,135.299
		s135.301-60.574,135.301-135.299C270.602,60.576,210.023,0,135.301,0L135.301,0z M238.276,135.301
		c0,22.601-7.288,43.499-19.636,60.481l-67.177-67.176V33.59C200.656,41.347,238.276,83.928,238.276,135.301L238.276,135.301z
		 M119.138,237.009c-16.379-2.584-31.471-9.025-44.323-18.369l44.323-44.32V237.009z M151.464,174.319l44.319,44.32
		c-12.852,9.344-27.942,15.789-44.319,18.369V174.319z M119.138,33.59v95.014l-67.18,67.178
		c-12.346-16.982-19.633-37.88-19.633-60.481C32.326,83.928,69.946,41.347,119.138,33.59L119.138,33.59z M119.138,33.59"/>
</g>
</svg>
